<svg width="22" height="18" viewBox="0 0 22 18" fill="none" xmlns="http://www.w3.org/2000/svg">
<g id="8111398_download_arrow_down_direction_navigation_icon 1">
<path id="Vector" d="M11 14.4035L6.53335 10.749L7.45503 9.99492L10.3481 12.3616V1.19531H11.6518V12.3616L14.5449 9.99492L15.4687 10.749L11 14.4035ZM19.1606 12.3398V15.6171C19.1592 15.6491 19.1431 15.6796 19.1154 15.7022C19.0877 15.7249 19.0506 15.7382 19.0115 15.7395H2.97124C2.934 15.7374 2.89926 15.7234 2.87456 15.7005C2.84986 15.6776 2.8372 15.6476 2.83933 15.6171V12.3398H1.53565V15.6171C1.53428 15.9302 1.68458 16.2309 1.95365 16.4535C2.22271 16.6761 2.58862 16.8024 2.97124 16.8047H19.0115C19.3967 16.8043 19.766 16.6789 20.0384 16.456C20.3108 16.2331 20.4639 15.9309 20.4642 15.6157V12.3398H19.1606Z" fill="black"/>
</g>
</svg>
