<svg width="32" height="28" viewBox="0 0 32 28" fill="none" xmlns="http://www.w3.org/2000/svg">
<path d="M20.4444 19.5H25.7778C26.5139 19.5 27.1111 18.8281 27.1111 18C27.1111 17.1719 26.5139 16.5 25.7778 16.5H20.4444C19.7083 16.5 19.1111 17.1719 19.1111 18C19.1111 18.8281 19.7111 19.5 20.4444 19.5ZM11.5556 18C13.5194 18 15.1111 16.2094 15.1111 14C15.1111 11.7906 13.5194 10 11.5556 10C9.59167 10 8 11.7906 8 14C8 16.2062 9.59444 18 11.5556 18ZM28.4444 0H3.55556C1.59167 0 0 1.79063 0 4V24C0 26.2094 1.59167 28 3.55556 28H28.4444C30.4083 28 32 26.2094 32 24V4C32 1.79063 30.4056 0 28.4444 0ZM29.3333 24C29.3333 24.5514 28.9346 25 28.4444 25H17.7778C17.7778 22.2388 15.7878 20 13.3333 20H9.77778C7.32222 20 5.33333 22.2375 5.33333 25H3.55556C3.06544 25 2.66667 24.5514 2.66667 24V8H29.3333V24ZM20.4444 14.5H25.7778C26.5139 14.5 27.1111 13.8281 27.1111 13C27.1111 12.1719 26.5139 11.5 25.7778 11.5H20.4444C19.7083 11.5 19.1111 12.1719 19.1111 13C19.1111 13.8281 19.7111 14.5 20.4444 14.5Z" fill="#D7D7D7"/>
</svg>
