<svg width="32" height="24" viewBox="0 0 32 24" fill="none" xmlns="http://www.w3.org/2000/svg">
<path fill-rule="evenodd" clip-rule="evenodd" d="M28.668 23.3327H3.33464C1.86197 23.3327 0.667969 22.1387 0.667969 20.666V3.33268C0.667969 1.86002 1.86197 0.666016 3.33464 0.666016H28.668C30.1406 0.666016 31.3346 1.86002 31.3346 3.33268V20.666C31.3346 22.1387 30.1406 23.3327 28.668 23.3327ZM30.0013 3.33268C30.0013 2.59668 29.404 1.99935 28.668 1.99935H3.33464C2.59864 1.99935 2.0013 2.59668 2.0013 3.33268V20.666C2.0013 21.402 2.59864 21.9993 3.33464 21.9993H28.668C29.404 21.9993 30.0013 21.402 30.0013 20.666V3.33268ZM27.5573 19.1427L23.3346 14.92L20.922 17.3327L23.1446 19.5553C23.3986 19.8093 23.3986 20.2213 23.1446 20.476C22.89 20.73 22.478 20.73 22.224 20.476L12.668 10.92L4.4453 19.1427C4.1913 19.3967 3.7793 19.3967 3.52464 19.1427C3.27064 18.888 3.27064 18.476 3.52464 18.222L12.128 9.61868C12.1493 9.58668 12.1633 9.55135 12.1913 9.52268C12.3226 9.39135 12.496 9.33135 12.668 9.33535C12.84 9.33135 13.0133 9.39135 13.1446 9.52268C13.1726 9.55135 13.186 9.58668 13.208 9.61868L20.0013 16.412L22.7946 13.6187C22.8166 13.5873 22.83 13.5513 22.858 13.5227C22.9893 13.392 23.1626 13.3313 23.3346 13.3353C23.5066 13.3313 23.68 13.392 23.8113 13.5227C23.8393 13.5513 23.8526 13.5873 23.8746 13.6187L28.478 18.222C28.732 18.476 28.732 18.888 28.478 19.1427C28.2233 19.3967 27.8113 19.3967 27.5573 19.1427ZM19.3346 8.66602C17.862 8.66602 16.668 7.47202 16.668 5.99935C16.668 4.52668 17.862 3.33268 19.3346 3.33268C20.8073 3.33268 22.0013 4.52668 22.0013 5.99935C22.0013 7.47202 20.8073 8.66602 19.3346 8.66602ZM19.3346 4.66602C18.5986 4.66602 18.0013 5.26335 18.0013 5.99935C18.0013 6.73535 18.5986 7.33268 19.3346 7.33268C20.0706 7.33268 20.668 6.73535 20.668 5.99935C20.668 5.26335 20.0706 4.66602 19.3346 4.66602Z" fill="black"/>
</svg>
