<svg width="32" height="32" viewBox="0 0 32 32" fill="none" xmlns="http://www.w3.org/2000/svg">
<g id="4373076_adobe_file_logo_logos_pdf_icon 1">
<g id="_x32_7_x2C__PDF_x2C__File_type_x2C__Adobe">
<g id="Group">
<path id="Vector" d="M22.9568 3.32812L26.6484 7.03131L26.6341 7.04494L22.9882 7.04769L22.9541 3.33088L22.9568 3.32812Z" fill="#F1F1F1"/>
<path id="Vector_2" d="M13.0465 9.17191C13.0465 9.87453 12.654 10.2064 12.0516 10.2017C11.9691 10.2017 11.8771 10.2017 11.8206 10.1887V8.26484C11.8771 8.25191 11.9732 8.23828 12.1217 8.23828C12.6928 8.23834 13.0506 8.56134 13.0465 9.17191Z" fill="#F1F1F1"/>
<path id="Vector_3" d="M10.0705 8.66184C10.0705 8.96303 9.85242 9.14228 9.49949 9.14228C9.40336 9.14228 9.33317 9.13753 9.27661 9.12459V8.25634C9.32499 8.24341 9.4163 8.23047 9.55124 8.23047C9.88311 8.23047 10.0705 8.39128 10.0705 8.66184Z" fill="#F1F1F1"/>
<path id="Vector_4" d="M7.85303 5.91406H19.3019V12.5244H7.85303H7.8251H5.39966V5.91406H7.82503H7.85303Z" fill="#F1F1F1"/>
<path id="Vector_5" d="M17.5739 15.9372C17.582 16.6235 17.1431 17.9626 17.1431 17.9626C16.9918 17.8031 16.6892 16.9499 16.6892 16.1607C16.6892 15.3716 16.9441 15.1562 17.1431 15.1562C17.3428 15.1562 17.5656 15.2517 17.5739 15.9372Z" fill="#DC1D00"/>
<path id="Vector_6" d="M22.3523 21.9234C22.3523 22.8298 20.71 22.4603 19.7 21.4988C19.7 21.4988 22.3523 21.0176 22.3523 21.9234Z" fill="#DC1D00"/>
<path id="Vector_7" d="M12.8218 24.9078C12.0088 24.4212 14.5282 22.9226 14.9828 22.875C14.9828 22.875 13.6729 25.4168 12.8218 24.9078Z" fill="#DC1D00"/>
<path id="Vector_8" d="M17.5261 19.4531C17.9882 20.3139 18.9054 21.3266 18.9054 21.3266C18.9054 21.3266 18.5544 21.3661 17.7387 21.5658C16.9229 21.7654 16.5134 21.9726 16.5134 21.9726C16.5134 21.9726 16.5134 21.9726 16.8481 21.223C17.1833 20.4733 17.5261 19.4531 17.5261 19.4531Z" fill="#DC1D00"/>
<path id="Vector_9" d="M26.662 7.04441V28.6754H7.85303V12.5242H19.3019V5.91384H7.85303V3.32422H22.954L22.9567 3.32759L22.954 3.33028L22.9881 7.04709L26.634 7.04434L26.6483 7.03072L26.662 7.04441Z" fill="#DC1D00"/>
<path id="Vector_10" d="M14.9826 22.8727C14.5281 22.9204 12.0086 24.419 12.8216 24.9055C13.6728 25.4146 14.9826 22.8727 14.9826 22.8727ZM19.6998 21.4961C20.7098 22.4576 22.3522 22.8271 22.3522 21.9207C22.3522 21.015 19.6998 21.4961 19.6998 21.4961ZM18.9052 21.3257C18.9052 21.3257 17.988 20.3131 17.5259 19.4523C17.5259 19.4523 17.1831 20.4725 16.8478 21.2221C16.5132 21.9717 16.5132 21.9717 16.5132 21.9717C16.5132 21.9717 16.9228 21.7645 17.7385 21.5648C18.5542 21.3653 18.9052 21.3257 18.9052 21.3257ZM17.143 17.9612C17.143 17.9612 17.5818 16.6221 17.5737 15.9359C17.5654 15.2503 17.3426 15.1549 17.143 15.1549C16.944 15.1549 16.689 15.3702 16.689 16.1593C16.689 16.9485 16.9916 17.8018 17.143 17.9612ZM17.6936 18.9978C18.14 19.9627 19.368 21.2058 19.368 21.2058C19.368 21.2058 19.766 21.1022 21.4084 21.0627C23.0514 21.0231 23.123 21.9472 23.1305 22.027C23.1386 22.1074 23.2028 22.8407 21.895 22.8883C20.5879 22.9361 19.2318 21.5731 19.2318 21.5731C19.2318 21.5731 18.6743 21.661 18.2122 21.7721C17.7501 21.8838 16.2666 22.2907 16.2666 22.2907C16.2666 22.2907 15.8277 23.088 14.8552 24.3631C13.8821 25.6388 12.7924 25.5435 12.4816 25.1208C12.1204 24.6302 12.3991 24.1403 13.0847 23.5023C13.7703 22.8645 15.352 22.3356 15.352 22.3356C15.352 22.3356 15.671 21.7618 16.1385 20.6667C16.6059 19.5716 16.9596 18.4716 16.9596 18.4716C16.9596 18.4716 16.4969 17.4208 16.4069 16.5267C16.3061 15.5297 16.4178 14.8598 17.1831 14.8516C17.9485 14.8435 18.1876 15.418 18.2115 16.4142C18.2353 17.4113 17.6936 18.9978 17.6936 18.9978Z" fill="white"/>
<g id="Group_2">
<path id="Vector_11" d="M15.9375 8.3125V7.75H14.1875V10.6875H14.8125V9.5H15.875V9H14.8125V8.3125H15.9375Z" fill="#A51600"/>
<path id="Vector_12" d="M13.2559 8.04466C12.9724 7.83066 12.5966 7.73047 12.0378 7.73047C11.7019 7.73047 11.375 7.75228 11.125 7.79178V10.6799C11.3125 10.7017 11.5492 10.7235 11.894 10.7235C12.4699 10.7235 12.9484 10.6015 13.2578 10.3439C13.5413 10.104 13.7499 9.71553 13.7499 9.15266C13.7499 8.63416 13.5619 8.27159 13.2559 8.04466ZM12.0164 10.2043C11.9339 10.2043 11.875 10.2043 11.75 10.1913V8.26747C11.875 8.25453 11.938 8.24091 12.0866 8.24091C12.6577 8.24091 13.0154 8.56391 13.0113 9.17453C13.0113 9.87716 12.6187 10.209 12.0164 10.2043Z" fill="#A51600"/>
<path id="Vector_13" d="M10.4155 7.96622C10.2192 7.80878 9.89931 7.73047 9.489 7.73047C9.0835 7.73047 8.75 7.75703 8.5625 7.79178V10.6891H9.25V9.64128C9.3125 9.65016 9.40306 9.65491 9.49037 9.65491C9.88287 9.65491 10.2255 9.55878 10.4525 9.34484C10.6269 9.17928 10.7263 8.93459 10.7263 8.64703C10.7263 8.35878 10.6029 8.11478 10.4155 7.96622ZM9.48619 9.14453C9.39013 9.14453 9.3125 9.13978 9.25 9.12684V8.25859C9.3125 8.24566 9.40306 8.23272 9.53794 8.23272C9.86987 8.23272 10.0573 8.39353 10.0573 8.66409C10.0573 8.96528 9.83919 9.14453 9.48619 9.14453Z" fill="#A51600"/>
</g>
</g>
</g>
</g>
</svg>
