<svg width="32" height="32" viewBox="0 0 32 32" fill="none" xmlns="http://www.w3.org/2000/svg">
<path d="M16 0C7.2 0 0 7.2 0 16C0 24.8 7.2 32 16 32C24.8 32 32 24.8 32 16C32 7.2 24.8 0 16 0ZM16 5.33333C18.9333 5.33333 21.3333 8.26667 21.3333 12C21.3333 15.7333 18.9333 18.6667 16 18.6667C13.0667 18.6667 10.6667 15.7333 10.6667 12C10.6667 8.26667 13.0667 5.33333 16 5.33333ZM24.8 26C22.5333 28 19.3333 29.3333 16 29.3333C12.6667 29.3333 9.46667 28 7.2 26C6.66667 25.4667 6.53333 24.6667 7.06667 24.1333C8.53333 22.4 10.5333 21.2 12.6667 20.5333C13.7333 21.0667 14.8 21.3333 16 21.3333C17.2 21.3333 18.2667 21.0667 19.3333 20.5333C21.6 21.2 23.4667 22.4 24.9333 24.1333C25.4667 24.6667 25.4667 25.4667 24.8 26Z" fill="black"/>
</svg>
