<svg width="32" height="32" viewBox="0 0 32 32" fill="none" xmlns="http://www.w3.org/2000/svg">
<g id="3643775_caution_exclamation_mark_sign_triangle_icon 1">
<g id="Layer 58">
<path id="Vector" d="M16 26C15.6044 26 15.2178 25.8827 14.8889 25.6629C14.56 25.4432 14.3036 25.1308 14.1522 24.7654C14.0009 24.3999 13.9613 23.9978 14.0384 23.6098C14.1156 23.2219 14.3061 22.8655 14.5858 22.5858C14.8655 22.3061 15.2219 22.1156 15.6098 22.0384C15.9978 21.9613 16.3999 22.0009 16.7654 22.1522C17.1308 22.3036 17.4432 22.56 17.6629 22.8889C17.8827 23.2178 18 23.6044 18 24C18 24.5304 17.7893 25.0391 17.4142 25.4142C17.0391 25.7893 16.5304 26 16 26Z" fill="#140460"/>
<path id="Vector_2" d="M16 20C15.7348 20 15.4804 19.8946 15.2929 19.7071C15.1054 19.5196 15 19.2652 15 19V11C15 10.7348 15.1054 10.4804 15.2929 10.2929C15.4804 10.1054 15.7348 10 16 10C16.2652 10 16.5196 10.1054 16.7071 10.2929C16.8946 10.4804 17 10.7348 17 11V19C17 19.2652 16.8946 19.5196 16.7071 19.7071C16.5196 19.8946 16.2652 20 16 20Z" fill="#140460"/>
<path id="Vector_3" d="M27.78 29.9992H4.22C3.66123 30.003 3.11125 29.86 2.62512 29.5845C2.13899 29.3089 1.73376 28.9105 1.45 28.4292C1.16611 27.9586 1.01111 27.4217 1.00058 26.8722C0.990043 26.3228 1.12435 25.7802 1.39 25.2992L13.17 3.66917C13.4488 3.1625 13.8584 2.73995 14.3562 2.44565C14.854 2.15135 15.4217 1.99609 16 1.99609C16.5783 1.99609 17.146 2.15135 17.6438 2.44565C18.1416 2.73995 18.5513 3.1625 18.83 3.66917L30.61 25.2992C30.8757 25.7802 31.01 26.3228 30.9994 26.8722C30.9889 27.4217 30.8339 27.9586 30.55 28.4292C30.2662 28.9105 29.861 29.3089 29.3749 29.5845C28.8888 29.86 28.3388 30.003 27.78 29.9992ZM16 3.99917C15.7807 3.99437 15.5644 4.05077 15.3754 4.16205C15.1864 4.27334 15.0322 4.4351 14.93 4.62917L3.15 26.2492C3.04411 26.4241 2.98813 26.6247 2.98813 26.8292C2.98813 27.0337 3.04411 27.2342 3.15 27.4092C3.25243 27.5847 3.39811 27.7311 3.57316 27.8344C3.74822 27.9377 3.94681 27.9944 4.15 27.9992H27.78C27.9832 27.9944 28.1818 27.9377 28.3568 27.8344C28.5319 27.7311 28.6776 27.5847 28.78 27.4092C28.8859 27.2342 28.9419 27.0337 28.9419 26.8292C28.9419 26.6247 28.8859 26.4241 28.78 26.2492L17.07 4.62917C16.9678 4.4351 16.8136 4.27334 16.6246 4.16205C16.4356 4.05077 16.2193 3.99437 16 3.99917Z" fill="#140460"/>
</g>
</g>
</svg>
